<svg width="32" height="32" fill="#ffffff" viewBox="0 0 24 24" xmlns="http://www.w3.org/2000/svg">
 <path d="M8.432 19.8c7.245 0 11.209-6.005 11.209-11.202 0-.168 0-.338-.007-.506A8.023 8.023 0 0 0 21.6 6.049a7.99 7.99 0 0 1-2.266.622 3.961 3.961 0 0 0 1.736-2.18 7.84 7.84 0 0 1-2.505.951 3.943 3.943 0 0 0-6.715 3.593A11.19 11.19 0 0 1 3.73 4.92a3.947 3.947 0 0 0 1.222 5.259 3.989 3.989 0 0 1-1.784-.49v.054a3.946 3.946 0 0 0 3.159 3.862 3.964 3.964 0 0 1-1.775.069 3.939 3.939 0 0 0 3.68 2.733 7.907 7.907 0 0 1-4.896 1.688 7.585 7.585 0 0 1-.936-.054A11.213 11.213 0 0 0 8.432 19.8Z"></path>
</svg>